<mxfile host="app.diagrams.net" modified="2023-08-29T04:57:05.182Z" agent="Mozilla/5.0 (X11; Ubuntu; Linux x86_64; rv:109.0) Gecko/20100101 Firefox/116.0" etag="PDdRpSqcrOjeD-Ksbrv2" version="21.6.9" type="github">
  <diagram name="Page-1" id="q5cM82VvPaN-xA1Bp7kn">
    <mxGraphModel dx="892" dy="578" grid="1" gridSize="10" guides="1" tooltips="1" connect="1" arrows="1" fold="1" page="1" pageScale="1" pageWidth="850" pageHeight="1100" math="0" shadow="0">
      <root>
        <mxCell id="0" />
        <mxCell id="1" parent="0" />
        <mxCell id="nvSL83TzajdSbWB9XkpV-1" value="" style="whiteSpace=wrap;html=1;aspect=fixed;" vertex="1" parent="1">
          <mxGeometry x="200" y="60" width="350" height="350" as="geometry" />
        </mxCell>
        <mxCell id="nvSL83TzajdSbWB9XkpV-3" value="" style="ellipse;whiteSpace=wrap;html=1;" vertex="1" parent="1">
          <mxGeometry x="310" y="90" width="120" height="80" as="geometry" />
        </mxCell>
        <mxCell id="nvSL83TzajdSbWB9XkpV-4" value="" style="ellipse;whiteSpace=wrap;html=1;" vertex="1" parent="1">
          <mxGeometry x="310" y="185" width="120" height="80" as="geometry" />
        </mxCell>
        <mxCell id="nvSL83TzajdSbWB9XkpV-5" value="" style="ellipse;whiteSpace=wrap;html=1;" vertex="1" parent="1">
          <mxGeometry x="310" y="290" width="120" height="80" as="geometry" />
        </mxCell>
        <mxCell id="nvSL83TzajdSbWB9XkpV-7" value="menebak Angka" style="text;html=1;strokeColor=none;fillColor=none;align=center;verticalAlign=middle;whiteSpace=wrap;rounded=0;" vertex="1" parent="1">
          <mxGeometry x="340" y="310" width="60" height="30" as="geometry" />
        </mxCell>
        <mxCell id="nvSL83TzajdSbWB9XkpV-8" value="Cek Angka" style="text;html=1;strokeColor=none;fillColor=none;align=center;verticalAlign=middle;whiteSpace=wrap;rounded=0;" vertex="1" parent="1">
          <mxGeometry x="340" y="210" width="60" height="30" as="geometry" />
        </mxCell>
        <mxCell id="nvSL83TzajdSbWB9XkpV-9" value="Random Angka" style="text;html=1;strokeColor=none;fillColor=none;align=center;verticalAlign=middle;whiteSpace=wrap;rounded=0;" vertex="1" parent="1">
          <mxGeometry x="340" y="115" width="60" height="30" as="geometry" />
        </mxCell>
        <mxCell id="nvSL83TzajdSbWB9XkpV-10" value="Komputer" style="shape=umlActor;verticalLabelPosition=bottom;verticalAlign=top;html=1;outlineConnect=0;" vertex="1" parent="1">
          <mxGeometry x="60" y="155" width="90" height="110" as="geometry" />
        </mxCell>
        <mxCell id="nvSL83TzajdSbWB9XkpV-11" value="Pemain" style="shape=umlActor;verticalLabelPosition=bottom;verticalAlign=top;html=1;outlineConnect=0;" vertex="1" parent="1">
          <mxGeometry x="640" y="157.5" width="80" height="135" as="geometry" />
        </mxCell>
        <mxCell id="nvSL83TzajdSbWB9XkpV-12" value="" style="endArrow=none;html=1;rounded=0;exitX=1;exitY=0.3333333333333333;exitDx=0;exitDy=0;exitPerimeter=0;" edge="1" parent="1" source="nvSL83TzajdSbWB9XkpV-10" target="nvSL83TzajdSbWB9XkpV-3">
          <mxGeometry width="50" height="50" relative="1" as="geometry">
            <mxPoint x="400" y="360" as="sourcePoint" />
            <mxPoint x="450" y="310" as="targetPoint" />
          </mxGeometry>
        </mxCell>
        <mxCell id="nvSL83TzajdSbWB9XkpV-13" value="" style="endArrow=none;html=1;rounded=0;entryX=1;entryY=0.3333333333333333;entryDx=0;entryDy=0;entryPerimeter=0;exitX=0;exitY=0.5;exitDx=0;exitDy=0;" edge="1" parent="1" source="nvSL83TzajdSbWB9XkpV-4" target="nvSL83TzajdSbWB9XkpV-10">
          <mxGeometry width="50" height="50" relative="1" as="geometry">
            <mxPoint x="400" y="360" as="sourcePoint" />
            <mxPoint x="450" y="310" as="targetPoint" />
          </mxGeometry>
        </mxCell>
        <mxCell id="nvSL83TzajdSbWB9XkpV-14" value="" style="endArrow=none;html=1;rounded=0;entryX=0.488;entryY=0.352;entryDx=0;entryDy=0;entryPerimeter=0;exitX=0.992;exitY=0.425;exitDx=0;exitDy=0;exitPerimeter=0;" edge="1" parent="1" source="nvSL83TzajdSbWB9XkpV-5" target="nvSL83TzajdSbWB9XkpV-11">
          <mxGeometry width="50" height="50" relative="1" as="geometry">
            <mxPoint x="400" y="360" as="sourcePoint" />
            <mxPoint x="450" y="310" as="targetPoint" />
          </mxGeometry>
        </mxCell>
        <mxCell id="nvSL83TzajdSbWB9XkpV-16" value="GAME TEBAK ANGKA" style="text;html=1;strokeColor=none;fillColor=none;align=center;verticalAlign=middle;whiteSpace=wrap;rounded=0;fontSize=14;" vertex="1" parent="1">
          <mxGeometry x="290" y="60" width="150" height="30" as="geometry" />
        </mxCell>
      </root>
    </mxGraphModel>
  </diagram>
</mxfile>
